HIERARCHY
ROOT Hips
{
	OFFSET 0.000000 0.000000 0.000000
	CHANNELS 6 Xposition Yposition Zposition Zrotation Yrotation Xrotation 
	JOINT LHipJoint
	{
		OFFSET 0.000000 0.000000 0.000000
		CHANNELS 3 Zrotation Yrotation Xrotation
		JOINT LeftUpLeg
		{
			OFFSET 1.363060 -1.794630 0.839290
			CHANNELS 3 Zrotation Yrotation Xrotation
			JOINT LeftLeg
			{
				OFFSET 2.448110 -6.726130 0.000000
				CHANNELS 3 Zrotation Yrotation Xrotation
				JOINT LeftFoot
				{
					OFFSET 2.562200 -7.039590 0.000000
					CHANNELS 3 Zrotation Yrotation Xrotation
					JOINT LeftToeBase
					{
						OFFSET 0.157640 -0.433110 2.322550
						CHANNELS 3 Zrotation Yrotation Xrotation
						End Site
						{
							OFFSET 0.000000 0.000000 0.000000
						}
					}
				}
			}
		}
	}
	JOINT RHipJoint
	{
		OFFSET 0.000000 0.000000 0.000000
		CHANNELS 3 Zrotation Yrotation Xrotation
		JOINT RightUpLeg
		{
			OFFSET -1.305520 -1.794630 0.839290
			CHANNELS 3 Zrotation Yrotation Xrotation
			JOINT RightLeg
			{
				OFFSET -2.542530 -6.985550 0.000000
				CHANNELS 3 Zrotation Yrotation Xrotation
				JOINT RightFoot
				{
					OFFSET -2.568260 -7.056230 0.000000
					CHANNELS 3 Zrotation Yrotation Xrotation
					JOINT RightToeBase
					{
						OFFSET -0.164730 -0.452590 2.363150
						CHANNELS 3 Zrotation Yrotation Xrotation
						End Site
						{
							OFFSET 0.000000 0.000000 0.000000
						}
					}
				}
			}
		}
	}
}
MOTION
Frames: 33
Frame Time: 0.008333
6.307008 17.059702 1.601411 -174.520533 -85.090118 -177.732033 -10.649161 0.903578 0.635307 -7.373380 4.005076 -35.538002 -0.707421 2.650344 49.666580 2.917683 16.070609 -14.003050 -1.661100 -0.000000 -4.043100 7.750335 -1.535262 1.437319 16.079127 4.982012 0.008562 2.630732 0.604106 12.743285 -2.637227 -7.361689 -19.185293 1.725600 -0.000000 -1.711800
6.079710 17.099594 1.558486 173.928934 -85.088079 -166.199106 -10.680912 0.612294 0.733763 -8.545404 3.808088 -35.395685 -0.879795 2.261516 45.821953 2.931328 15.940990 -13.423330 -1.466600 0.000000 -4.403101 7.710848 -1.809584 1.352196 15.008837 4.291784 1.606463 2.618436 0.655166 10.741326 -2.365288 -6.697109 -17.695032 1.351399 0.000000 -3.737400
5.850675 17.134830 1.520495 167.517490 -84.874819 -159.819846 -10.512547 0.410470 0.805169 -9.543408 3.806090 -35.153624 -1.056930 1.863839 41.821132 2.906049 15.617739 -12.732979 -1.228000 -0.000000 -4.911800 7.910065 -2.067789 1.277436 14.033313 3.460787 3.058787 2.604932 0.672149 8.964872 -2.036976 -5.793195 -16.048348 0.972900 -0.000000 -6.346800
5.619641 17.165240 1.488266 164.493596 -84.420331 -156.835843 -10.293905 0.312041 0.872051 -10.408854 4.016054 -34.862843 -1.262912 1.495175 37.682127 2.838938 15.110470 -11.937309 -0.954700 0.000000 -5.633100 8.174579 -2.283136 1.184950 13.093455 2.533304 4.383659 2.593884 0.671960 7.453982 -1.662416 -4.628835 -14.267754 0.618300 -0.000000 -9.570900
5.386300 17.190832 1.462291 163.636073 -83.785796 -156.009090 -10.099589 0.274787 0.938852 -11.150399 4.414996 -34.563289 -1.494724 1.149554 33.461093 2.727824 14.425928 -11.041432 -0.659700 -0.000000 -6.634300 8.419794 -2.469578 1.073136 12.187242 1.557430 5.573839 2.594118 0.654013 6.209810 -1.260030 -3.239424 -12.390513 0.318200 0.000000 -13.312300
5.150536 17.211701 1.442548 164.084747 -83.053336 -156.484765 -9.950189 0.263680 1.010192 -11.774144 4.970255 -34.273587 -1.741056 0.812174 29.225744 2.572747 13.575880 -10.052330 -0.358599 0.000000 -7.974900 8.627489 -2.648812 0.955045 11.321103 0.554936 6.625689 2.608896 0.614091 5.227635 -0.846735 -1.664976 -10.446189 0.097300 0.000000 -17.523401
4.911963 17.228125 1.428989 165.433468 -82.263539 -157.840120 -9.850723 0.258221 1.085157 -12.273551 5.664118 -34.042607 -1.993078 0.480213 25.060960 2.376743 12.572009 -8.990271 -0.069500 0.000001 -9.690101 8.786568 -2.824493 0.848226 10.535200 -0.394879 7.537806 2.636878 0.556225 4.494107 -0.448070 0.006214 -8.489162 -0.024400 0.000000 -21.859500
4.670892 17.240460 1.420421 167.140614 -81.457298 -159.550197 -9.790620 0.247449 1.157797 -12.686792 6.455780 -33.857793 -2.243540 0.151727 21.029198 2.147104 11.446045 -7.879931 0.189700 0.000000 -11.752300 8.913503 -3.001014 0.745440 9.798348 -1.322443 8.321434 2.671470 0.476451 4.008244 -0.072374 1.753124 -6.523207 -0.040101 -0.000000 -26.452900
4.426800 17.249250 1.416640 169.173569 -80.651154 -161.557165 -9.766261 0.224110 1.228890 -13.009771 7.332657 -33.785083 -2.486149 -0.166141 17.229284 1.891710 10.206782 -6.768224 0.401100 -0.000000 -14.123000 8.997687 -3.175095 0.672470 9.175713 -2.105698 8.980710 2.707803 0.384364 3.746299 0.253495 3.433523 -4.622984 0.046300 0.000000 -30.682700
4.180123 17.255001 1.416180 171.209539 -79.876130 -163.556282 -9.763316 0.187299 1.294419 -13.287435 8.246376 -33.801347 -2.716999 -0.469773 13.719896 1.621942 8.888593 -5.703111 0.552200 -0.000000 -16.684700 9.055760 -3.348512 0.619519 8.631557 -2.780118 9.533392 2.737309 0.276849 3.698965 0.527770 5.010409 -2.776793 0.221799 0.000000 -34.755100
3.931195 17.258234 1.417961 173.130878 -79.155334 -165.434322 -9.771698 0.138052 1.355326 -13.542131 9.151268 -33.905277 -2.932717 -0.753529 10.563001 1.349721 7.522705 -4.741398 0.636500 -0.000000 -19.300500 9.092327 -3.520220 0.588359 8.166550 -3.325761 9.994380 2.753195 0.155631 3.846163 0.744657 6.402555 -0.995175 0.465900 -0.000000 -38.631700
3.680287 17.259494 1.420906 174.880645 -78.509196 -167.133927 -9.783233 0.079186 1.416095 -13.783386 9.992539 -34.086223 -3.129634 -1.013185 7.803543 1.087653 6.150986 -3.936949 0.656500 0.000001 -21.822700 9.109665 -3.688380 0.581070 7.786489 -3.717003 10.378676 2.750782 0.023291 4.169227 0.902047 7.530907 0.696645 0.748501 0.000000 -42.100200
3.428045 17.259081 1.423809 176.361257 -77.959639 -168.572478 -9.790587 0.015831 1.480853 -14.016641 10.702821 -34.295727 -3.303438 -1.246435 5.459160 0.848240 4.832398 -3.330341 0.624400 0.000000 -24.108000 9.116621 -3.851935 0.585870 7.463648 -3.988592 10.707576 2.724465 -0.121833 4.644502 1.005545 8.364922 2.338584 1.046300 -0.000000 -45.572500
3.174927 17.257245 1.425820 177.578858 -77.519751 -169.758765 -9.791448 -0.047666 1.556204 -14.220344 11.223026 -34.495320 -3.448481 -1.451192 3.536310 0.642091 3.628546 -2.944621 0.558600 0.000001 -26.049200 9.114900 -4.007859 0.598981 7.199517 -4.136409 10.998742 2.672646 -0.277732 5.252340 1.058870 8.869286 3.924494 1.328900 0.000000 -48.966100
2.921328 17.254039 1.426237 178.541484 -77.198041 -170.707100 -9.785912 -0.106786 1.646642 -14.367119 11.504790 -34.637959 -3.559337 -1.625468 2.027254 0.477170 2.600652 -2.780506 0.479601 -0.000000 -27.577000 9.108015 -4.153642 0.612374 6.986072 -4.179439 11.270376 2.594745 -0.443610 5.974274 1.068169 9.046969 5.471161 1.573400 -0.000000 -52.376300
2.667626 17.249292 1.424645 179.277337 -76.996276 -171.451148 -9.776177 -0.157802 1.754223 -14.426647 11.518111 -34.685210 -3.631616 -1.766354 0.920297 0.358010 1.797478 -2.817738 0.404500 -0.000000 -28.663701 9.098793 -4.287345 0.618673 6.817283 -4.139907 11.538948 2.491179 -0.618729 6.788000 1.039455 8.924698 7.018291 1.766301 0.000000 -56.064399
2.414146 17.242704 1.420914 179.822813 -76.911504 -172.032343 -9.765346 -0.197961 1.879737 -14.374571 11.248356 -34.613090 -3.662390 -1.870634 0.200066 0.286517 1.255642 -3.016167 0.344801 -0.000000 -29.318600 9.089899 -4.407146 0.611546 6.686045 -4.044573 11.813150 2.364538 -0.801925 7.683715 0.979441 8.563351 8.588938 1.902600 -0.000000 -60.086200
2.160960 17.233843 1.415062 -179.791938 -76.936523 -172.480381 -9.756116 -0.225030 2.024275 -14.197524 10.689512 -34.413872 -3.650327 -1.935548 -0.151588 0.262961 1.001744 -3.321490 0.306400 -0.000000 -29.576500 9.085321 -4.511862 0.585484 6.576685 -3.929833 12.087249 2.219286 -0.991894 8.670121 0.896916 8.063678 10.185149 1.992000 -0.000001 -64.251100
1.908052 17.222175 1.407316 -179.548269 -77.060845 -172.811574 -9.749952 -0.237467 2.188864 -13.896196 9.842589 -34.095966 -3.595475 -1.959014 -0.154280 0.286435 1.052126 -3.671716 0.290700 0.000001 -29.483700 9.090108 -4.601633 0.535985 6.465648 -3.838070 12.346764 2.059687 -1.187684 9.758238 0.801467 7.544611 11.826230 2.062301 -0.000000 -68.506500
1.655507 17.207134 1.398015 -179.445489 -77.272685 -173.024006 -9.746595 -0.234482 2.373557 -13.489227 8.720526 -33.686822 -3.500089 -1.939688 0.177156 0.354415 1.406554 -4.006174 0.296899 -0.000000 -29.092800 9.110325 -4.677207 0.460182 6.321449 -3.813855 12.565300 1.890517 -1.388147 10.973454 0.703934 7.141651 13.512885 2.157800 -0.000001 -72.605099
1.403437 17.188205 1.387486 -179.508158 -77.558346 -173.089746 -9.744177 -0.216159 2.576227 -13.011432 7.349319 -33.223393 -3.368456 -1.877626 0.827129 0.462705 2.048493 -4.267312 0.325000 0.000000 -28.464900 9.153175 -4.740416 0.356430 6.104189 -3.901840 12.712557 1.714894 -1.591947 12.339753 0.613371 6.982394 15.259773 2.336300 -0.000000 -76.436800
1.151890 17.164872 1.376081 -179.785412 -77.903231 -172.954828 -9.739676 -0.183299 2.790443 -12.516766 5.781801 -32.755825 -3.208629 -1.773888 1.789460 0.603628 2.931624 -4.410717 0.376400 0.000000 -27.668700 9.226349 -4.793642 0.226263 5.768800 -4.139688 12.752994 1.535367 -1.796550 13.889042 0.536102 7.179926 17.058580 2.662000 0.000000 -79.715900
0.901292 17.136670 1.364156 179.674614 -78.290471 -172.572275 -9.730745 -0.137739 2.998872 -12.080088 4.131510 -32.361483 -3.034943 -1.627523 3.097604 0.761111 3.945324 -4.421452 0.449600 -0.000000 -26.768200 9.334731 -4.839670 0.076929 5.282656 -4.545954 12.654632 1.353828 -1.997812 15.648597 0.472474 7.799376 18.892911 3.189000 0.000000 -82.193101
0.652021 17.103200 1.351871 178.793834 -78.702079 -171.865045 -9.715871 -0.082934 3.183140 -11.768933 2.509976 -32.084184 -2.859518 -1.442163 4.751118 0.919824 4.991710 -4.290284 0.544800 -0.000000 -25.838200 9.483616 -4.880096 -0.085921 4.612278 -5.132552 12.395666 1.170855 -2.190896 17.636412 0.415969 8.850353 20.746680 3.952600 0.000000 -83.777000
0.404639 17.064055 1.339497 177.541823 -79.116757 -170.804729 -9.696163 -0.022558 3.318740 -11.645689 1.067788 -31.978676 -2.695521 -1.220112 6.776076 1.059575 5.936056 -4.044162 0.652800 0.000000 -24.921300 9.672840 -4.916040 -0.252001 3.753129 -5.885192 11.962254 0.988383 -2.370387 19.863565 0.355510 10.264289 22.584844 4.946899 -0.000000 -84.375901
0.160060 17.018915 1.327232 175.927875 -79.511495 -169.404695 -9.673927 0.039479 3.385374 -11.743312 -0.067814 -32.074952 -2.549776 -0.966007 9.177426 1.165082 6.673999 -3.732530 0.757500 0.000000 -24.018699 9.898674 -4.946709 -0.413124 2.721818 -6.775111 11.349461 0.809055 -2.532902 22.334771 0.279421 11.897057 24.360755 6.115200 -0.000000 -84.008999
-0.081121 16.967538 1.315322 174.013463 -79.862239 -167.722079 -9.650978 0.100433 3.372429 -12.059979 -0.819989 -32.374294 -2.421895 -0.687573 11.927279 1.230128 7.154036 -3.421667 0.840000 0.000000 -23.092800 10.154570 -4.970175 -0.564639 1.550554 -7.764915 10.559125 0.635154 -2.678558 25.049963 0.179378 13.541169 26.022985 7.348100 0.000001 -82.762600
-0.318027 16.909881 1.304137 171.932033 -80.145842 -165.885280 -9.628958 0.158211 3.279879 -12.559955 -1.164522 -32.867359 -2.306346 -0.393411 14.982301 1.257046 7.370483 -3.193740 0.881700 0.000000 -22.070700 10.429471 -4.982509 -0.704625 0.292482 -8.808157 9.594311 0.466938 -2.811223 28.004126 0.052087 14.940095 27.525238 8.486401 -0.000000 -80.879600
-0.549871 16.846157 1.293771 169.770560 -80.346056 -163.978369 -9.605179 0.211138 3.117035 -13.198619 -1.144682 -33.502716 -2.196992 -0.095802 18.249944 1.257025 7.378326 -3.119058 0.874200 0.000000 -20.908500 10.715819 -4.977467 -0.838393 -1.017250 -9.868247 8.466742 0.301475 -2.938202 31.188569 -0.101808 15.840721 28.827658 9.351900 0.000000 -78.602500
-0.776082 16.776916 1.284460 167.648734 -80.453117 -162.115409 -9.577866 0.258524 2.897971 -13.924656 -0.825515 -34.231061 -2.090596 0.194704 21.638921 1.242163 7.239614 -3.262984 0.815400 -0.000001 -19.593700 11.003685 -4.948190 -0.970072 -2.333481 -10.904519 7.189509 0.133780 -3.066893 34.583852 -0.280652 16.006748 29.896840 9.764100 0.000000 -76.216300
-0.996314 16.703048 1.276143 165.620572 -80.467011 -160.347682 -9.543186 0.300812 2.636795 -14.702233 -0.286575 -34.988222 -1.988685 0.468869 25.050137 1.223580 7.019241 -3.671393 0.709700 0.000000 -18.156500 11.287895 -4.887723 -1.105292 -3.630214 -11.887394 5.782875 -0.041356 -3.204135 38.162794 -0.484148 15.266171 30.689498 9.579200 0.000000 -73.909100
-1.210246 16.625794 1.268847 163.719265 -80.396610 -158.709973 -9.498502 0.339062 2.346471 -15.501343 0.393196 -35.711588 -1.895045 0.720715 28.394588 1.209726 6.770746 -4.370479 0.564300 0.000000 -16.652400 11.564280 -4.789764 -1.248433 -4.882076 -12.790532 4.273145 -0.227415 -3.354882 41.882257 -0.714371 13.526013 31.149095 8.714400 0.000000 -71.791900
-1.417943 16.546637 1.262468 161.935556 -80.256734 -157.195157 -9.440942 0.375664 2.037969 -16.304456 1.141930 -36.338475 -1.814564 0.946658 31.591789 1.206463 6.534994 -5.363101 0.386600 -0.000000 -15.150600 11.832250 -4.650744 -1.402781 -6.077590 -13.598499 2.690243 -0.425227 -3.523137 45.691659 -0.974170 10.801493 31.192233 7.177600 -0.000000 -69.771900
